# xmcd
#
# Track frame offsets:
#  150
#  12951
#  24275
#  35415
#  46792
#  57389
#  67552
#  81701
#  93435
#  103409
#  116882
#  128977
#  140382
#  153278
#  161671
#  172397
#  183965
#  196493
#
# Disc length: 2769 seconds
#
# Revision: 0
# Processed by: cddbd v1.5.1PL2 Copyright (c) Steve Scherf et al.
# Submitted via: Collectorz.com_Music_Collector 6.11
#
DISCID=f80acf12
DTITLE=Fabulous Peps - Detroit, Michigan
DYEAR=2006
DGENRE=Blues - Soul
TTITLE0=Detroit Michigan
TTITLE1=Speak Your Peace
TTITLE2=Gypsy Woman
TTITLE3=With These Eyes
TTITLE4=So Fine
TTITLE5=I Can't Get Right
TTITLE6=That's the Way Love Is
TTITLE7=My Love Looks Good on You
TTITLE8=This Love I Have for You
TTITLE9=Thinkin' About You
TTITLE10=I'll Never Be the Same Again
TTITLE11=I Love You
TTITLE12=Love of My Life
TTITLE13=She's Going to Leave You
TTITLE14=Why Are You Blowing My Mind
TTITLE15=I've Been Trying
TTITLE16=This I Pray
TTITLE17=Never Had It So Good
EXTD=
EXTT0=
EXTT1=
EXTT2=
EXTT3=
EXTT4=
EXTT5=
EXTT6=
EXTT7=
EXTT8=
EXTT9=
EXTT10=
EXTT11=
EXTT12=
EXTT13=
EXTT14=
EXTT15=
EXTT16=
EXTT17=
PLAYORDER=
